<svg width="48" height="45" viewBox="0 0 48 45" fill="none" xmlns="http://www.w3.org/2000/svg">
    <path
        d="M3.36676 14.5038C3.55956 11.7875 5.94592 9.65871 8.9167 9.52402C13.2186 9.32898 19.3672 9.09375 24 9.09375C28.6328 9.09375 34.7814 9.32898 39.0833 9.52402C42.0541 9.65871 44.4404 11.7875 44.6332 14.5038C44.818 17.1062 45 20.3084 45 22.8209C45 25.3334 44.818 28.5356 44.6332 31.138C44.4404 33.8543 42.0541 35.9831 39.0833 36.1178C34.7814 36.3128 28.6328 36.548 24 36.548C19.3672 36.548 13.2186 36.3128 8.9167 36.1178C5.94592 35.9831 3.55956 33.8543 3.36676 31.138C3.18205 28.5356 3 25.3334 3 22.8209C3 20.3084 3.18205 17.1062 3.36676 14.5038Z"
        fill="#FC0D1B" />
    <path d="M19.5 17.3301V28.3118L31.5 22.8209L19.5 17.3301Z" fill="white" />
</svg>