<svg xmlns="http://www.w3.org/2000/svg" viewBox="0 0 1513.45 285.97"><defs><style>.cls-1{fill:#040202;}.cls-2{fill:#fa7e2c;}.cls-3{fill:#060606;}.cls-4{fill:#050505;}.cls-5{fill:#070707;}.cls-6{fill:#f97f2d;}.cls-7{fill:#f0913e;}.cls-8{fill:#ed8039;}.cls-9{fill:#ea7139;}.cls-10{fill:#edb069;}.cls-11{fill:#fa7e2b;}</style></defs><g id="Layer_2" data-name="Layer 2"><g id="Layer_1-2" data-name="Layer 1"><path class="cls-1" d="M62.91,189.22c-4.18-15.53-8-31.16-7.36-47.38,2.17-54.78,26.82-96.4,74.63-123.62C155.28,3.93,182.86-2.3,211.62.76,255.7,5.45,291.21,25.85,317.18,62c.75,1.05,1.52,2.09,2.27,3.13-4.93,2.55-9.83,5.17-14.79,7.66-9.35,4.7-13.11,14.24-9,23,4,8.57,14.09,11.66,23.65,7.24q7.56-3.51,15.14-7c20.77,54.14,1.32,121.41-45.63,158.11-30.4,23.76-65,34.88-103.31,31-45.43-4.64-81.32-26.62-107.08-64.49l43.06-22.48c2.47,5,4.43,9,6.41,13s3.88,8.17,6.12,12.09A24.59,24.59,0,0,0,178.22,202c-.9-2.19-2-4.3-3-6.43Q157.59,159.63,140,123.69c-7.07-14.52-20.8-20.25-34.05-14s-17.57,20.62-10.5,35.1c3.83,7.84,7.57,15.72,11.59,24.08Zm205.2,39.19c-1.3-4-2.14-8.3-4-12.08Q222.88,131.6,181.39,47c-7-14.35-22.43-20.13-35.73-13.62-14,6.85-18.86,21.92-11.72,36.69,8.14,16.86,16.42,33.64,24.65,50.45q29.4,60,58.87,120a26.16,26.16,0,0,0,30.35,14.05C259.38,251.55,267.37,241,268.11,228.41Zm7.14-52.06c22.88.63,35.17-17.87,27-34.89C289.74,115.23,276.91,89.14,264,63.07c-6.64-13.45-21.15-18.72-33.64-12.56S213.16,71,219.74,84.66Q238.69,123.93,258.1,163C262.35,171.53,269.63,176.15,275.25,176.35Z"/><path class="cls-2" d="M62.91,189.22,107,168.85c-4-8.36-7.76-16.24-11.59-24.08-7.07-14.48-2.79-28.85,10.5-35.1s27-.5,34.05,14q17.52,36,35.21,71.86c1,2.13,2.12,4.24,3,6.43A24.59,24.59,0,0,1,134,223.32c-2.24-3.92-4.1-8-6.12-12.09s-3.94-8-6.41-13L78.43,220.71c-8.64,3.61-17.37,7-25.88,10.91-9.76,4.45-19.22,9.59-29,13.95C11.57,250.9-1.9,241.82.22,229.31c.79-4.64,5.1-10.14,9.34-12.47,15-8.24,30.66-15.24,46-22.84A70.23,70.23,0,0,0,62.91,189.22Z"/><path class="cls-3" d="M1487.83,168.49c1.56-6.37,3.13-12.74,4.67-19.11s3-12.47,4.52-18.9h16.43c-2.61,11.05-5.19,21.81-7.7,32.58-2.43,10.46-4.7,21-7.24,31.39-.71,2.89-.69,6.89-5.62,6.23s-10.77,2.39-13.63-5.09c-4.75-12.43-10.25-24.57-15.49-36.81-.74-1.74-1.8-3.35-3.47-6.41-2.3,9.09-4.31,16.81-6.2,24.55C1452.63,183,1451,189,1450,195.13c-.7,4.2-2.39,6-6.78,5.6-3.35-.33-6.76-.07-11-.07,1.63-7,3-13,4.41-19,3.56-15.48,7.16-30.95,10.63-46.44.83-3.68,2.56-4.74,6.53-5.25,11.19-1.45,18.23,1.72,21.25,13.37,1.75,6.77,5.41,13.05,8.28,19.53.89,2,2,3.93,3,5.89Z"/><path class="cls-4" d="M1005.92,199.58c1.43-6.3,2.91-12.91,4.43-19.53,3.41-14.83,6.87-29.66,10.23-44.51.85-3.72,2.22-5.82,6.79-5.52,8.17.54,16.4-.06,24.58.4,26,1.45,37.57,20.32,26.69,44-6.5,14.18-17.42,23.79-33.52,24.93C1032.32,200.31,1019.39,199.58,1005.92,199.58Zm20.25-12c20.72,4.16,35-5.69,37.25-24.55,1.79-14.76-9.86-24.56-24.47-20.48a4.13,4.13,0,0,0-2.59,2.33C1032.9,159,1029.61,173.05,1026.17,187.59Z"/><path class="cls-4" d="M900.61,171.13l16.09,29.52c-6.61,0-11.77.35-16.84-.18-1.85-.19-4.09-2.13-5.1-3.87a191.89,191.89,0,0,1-9.52-18.27c-2.22-5-6.37-4-9.87-3.41-1.64.29-3.34,3.23-4,5.3a104.35,104.35,0,0,0-3.7,15c-.7,4.15-2.42,6-6.8,5.55-3.79-.36-7.63-.08-12.38-.08,2.75-12.12,5.26-23.37,7.86-34.61,2.37-10.23,4.95-20.41,7.18-30.67.79-3.64,1.94-5.53,6.28-5.33,9.69.46,19.42,0,29.11.44,11.14.56,18.8,5.68,20.4,12.79,2.26,10-2.16,18.84-12.35,24.56C905.12,168.88,903.21,169.79,900.61,171.13Zm-25.47-8.68c9.26,0,17.86,2.34,24-5.86,4.3-5.78,1.25-12.88-5.85-14.07-12-2-13.93-.69-16.45,11.08C876.26,156.06,875.86,158.56,875.14,162.45Z"/><path class="cls-3" d="M1384.3,202.09c-23.4.06-35.42-15.14-30.28-38.29,5.59-25.19,29.86-40.17,55-33.94,16.33,4,23.78,19.9,18.47,39.29C1421.81,189.75,1405.71,202,1384.3,202.09Zm-12.38-29.47c-.35,5.61.6,11.78,6.93,15.33,6,3.38,12.2,2.5,17.78-1.15,2.65-1.73,5.68-3.94,6.85-6.65,2.91-6.79,5.84-13.85,6.89-21.07.92-6.34-.86-13.25-7.66-16.45s-13.59-2-19.4,2.78C1375,152.15,1371.89,161.27,1371.92,172.62Z"/><path class="cls-3" d="M957.29,202.08c-23.51-.08-35.8-16.35-29.66-39.28,6.72-25.13,29-38.62,54.44-32.92,14,3.13,21.88,15.37,20.27,31.4C999.9,185.65,981.67,202.15,957.29,202.08ZM945.2,171.15c-.2,7.15.75,13.87,8.15,17.45,6.26,3,14.76.83,20.7-5.06,7-6.95,9.64-15.64,9.76-25.17.08-6.47-1.26-12.78-7.86-15.79-6.86-3.13-13.58-1.81-19.39,2.91C948.48,152.08,945.39,161,945.2,171.15Z"/><path d="M656,200.32c-17.22,1.4-17.22,1.41-25.29-13.89-1.3-2.47-2.94-4.82-3.82-7.43-1.83-5.43-6.36-5.07-10.09-4.1-2,.52-3.42,3.9-4.7,6.21-.79,1.45-.83,3.31-1.19,5-3.44,16.16-3.44,16.16-21.07,13.86q3.09-13.34,6.17-26.56c3-13,6-25.94,9.3-38.81.45-1.75,3.06-4.12,4.73-4.17,9.91-.33,19.86-.42,29.76.09,12.13.62,19.08,5.5,21,13.74,2.08,9-2.8,18.09-12.82,23.76-1.66.94-3.4,1.74-5.85,3,4.74,9,9.39,17.83,14,26.65Zm-12.52-50c-2.54-2.7-4.4-6.46-6.87-6.91-5-.92-10.39-.11-15.6.17-.37,0-.77,1.44-1,2.26-1,3.93-2,7.86-2.9,11.82-.94,4.16,1.69,6.73,5.06,6.16a58.44,58.44,0,0,0,15.95-5.24C640.34,157.54,641.28,154,643.52,150.35Z"/><path class="cls-3" d="M1164.94,130.2c-5.11,19.1-9.46,37.17-14.93,54.9-2.27,7.36-8.37,12.26-16.16,14.64-10.41,3.17-20.79,3.55-31.1,0-9.86-3.34-14.39-9.43-12.66-19.64,2.83-16.65,6.88-33.1,10.41-49.65h18.44c-2.85,12.39-5.56,24.24-8.3,36.09-.58,2.5-1.39,5-1.82,7.49-1.44,8.41,0,12.17,5.37,14,7,2.47,15.44-.17,18.74-6.16a31.73,31.73,0,0,0,2.83-7.85c3.11-12.71,6.24-25.42,9-38.21.93-4.34,2.55-6.34,7.25-5.8C1155.76,130.55,1159.62,130.2,1164.94,130.2Z"/><path class="cls-3" d="M470.46,130.16c-3.3,14-6.37,27.1-9.45,40.19-.2.84-.45,1.66-.62,2.51-1.87,9.47-.25,13.8,5.8,15.52,8.16,2.32,16.48-1.22,19.26-8.84,2-5.42,3.12-11.15,4.47-16.79,2.16-9,4.41-18,6.15-27,.81-4.21,2.52-5.88,6.85-5.47,3.83.36,7.72.07,12.46.07-1,4.83-1.89,9.15-2.9,13.44-2.67,11.27-4.93,22.68-8.2,33.78-6.58,22.32-35.41,32.67-55.25,20.14-7.39-4.66-9.23-11.92-7.63-19.75,3-14.73,6.6-29.35,10.23-43.94a6,6,0,0,1,4.11-3.64C460.38,129.85,465.09,130.16,470.46,130.16Z"/><path class="cls-5" d="M369.49,181.62c9.54,2.76,18,5.43,26.6,7.55,2.59.64,5.6,0,8.34-.5,4.15-.78,8.23-2.3,8.57-7.29s-3.92-6.1-7.6-7.38c-6.5-2.26-13.15-4.14-19.51-6.73-15-6.12-13.1-24.79-1.72-31.66,16-9.68,33-7.55,50-3,1,.28,2.52,2.18,2.37,3.11-.71,4.55-1.91,9-2.65,12.31-8.7-2.3-16.63-4.43-24.59-6.46a8.17,8.17,0,0,0-3.23,0c-5,.81-11.37.57-12.24,7.16-.9,6.83,5.82,7,10.13,8.67,4.78,1.88,9.86,3,14.71,4.73,6.39,2.28,11.78,5.92,12.68,13.24,1,7.84-1.79,14.48-8.37,19.11-9.88,6.94-21.26,8.11-32.79,7.27-6.6-.48-13.16-2.14-19.59-3.82-1.59-.41-3.79-3.09-3.65-4.55C367.36,189,368.77,184.69,369.49,181.62Z"/><path class="cls-5" d="M656,200.32l.14-2.67c1.6-.84,3.88-1.27,4.7-2.59,12-19.38,24-38.72,35.35-58.43,3.09-5.34,6.6-6.82,12.34-6.58,15.51.65,12.21-2.7,14.76,13.29,3,18.62,5.18,37.36,7.81,56.73H713.77a4.5,4.5,0,0,1-.67-1.2C710.93,186,710.94,186,697.67,186c-3,0-6.09-.34-9,.11-1.89.28-4.82,1.36-5.22,2.69-3.83,12.84-13.75,12.77-24.18,11.86C658.16,200.6,657.1,200.45,656,200.32Zm51.57-50.22-2.09-.41-14.17,24.78c6.25,0,10.9.26,15.49-.18,1.23-.11,3.31-2.41,3.22-3.56C709.53,163.83,708.49,157,707.61,150.1Z"/><path class="cls-5" d="M571.6,130.18c3.33,23.78,6.54,46.67,9.87,70.45-5.71,0-10.63.25-15.49-.18-1.19-.1-2.77-2.29-3.15-3.78-.83-3.25-1-6.68-1.52-10.59-8.23,0-16-.17-23.69.14-1.53.06-3.89,1.65-4.34,3-4,12.26-13.17,13-24.23,10.74a20.65,20.65,0,0,1,1.37-3.7c12.47-20.61,24.88-41.26,37.65-61.68,1.36-2.18,4.8-3.89,7.49-4.24C560.63,129.7,565.86,130.18,571.6,130.18Zm-30.2,43.73h19.39c-1-8.29-1.9-16.34-2.84-24.39l-2.07-.45Z"/><path class="cls-3" d="M795.41,200.33H778.12c2.47-10.62,4.82-20.77,7.19-30.91,2.68-11.5,5.51-23,8-34.52.77-3.65,2.28-5,6.05-4.82,9.7.36,19.44,0,29.13.57,8.28.48,15.94,3,19.15,11.76,3.28,8.92.11,19.31-7.33,25.75-8.32,7.21-18.49,8.92-29,9.27-9.77.34-9.78.14-12.15,9.6-1,4-1.94,7.92-2.94,11.87A7.39,7.39,0,0,1,795.41,200.33Zm8.74-34.92c6.64-.72,12.18-.14,16.53-2.14,3.76-1.72,7.22-6,8.77-9.88.9-2.29-1.49-8.14-3.65-8.91-4.79-1.7-10.37-1.26-15.63-1.51-.44,0-1.22,1.21-1.39,2C807.31,151.16,805.94,157.4,804.15,165.41Z"/><path class="cls-5" d="M1231.86,150.73c-6-3.07-10.79-6.94-16.18-8-16-3.28-28.48,7.71-30.23,25.49-1.64,16.61,7.81,24.41,23.82,19.23,5.44-1.76,10.48-4.75,15.66-7.16-.26,13.15-2.26,16.17-14,19.79-10.2,3.13-20.45,3.24-30.39-1-7.72-3.31-12.49-9.49-13.48-17.66-2.06-17.07,2.35-32.22,16.33-43.17s30-11.71,46.57-6.59c4.76,1.47,6.9,3.72,4.84,8.87A99.62,99.62,0,0,0,1231.86,150.73Z"/><path class="cls-3" d="M1248.49,200.66c4.48-19.47,8.71-37.81,13.14-57.08H1240.7c-.48-1.16-.84-1.59-.77-1.94,2.32-11.48,2.33-11.48,14.11-11.48l42.79,0h8.24c-.79,3.69-.9,6.79-2.19,9.3a8.21,8.21,0,0,1-5.24,4c-5.86.83-13.64-1.22-17.27,1.85s-3.64,11-5,16.86c-2.46,10.46-4.92,20.92-7.08,31.45-1,5.06-2.81,8.2-8.83,7.2C1256.11,200.21,1252.62,200.66,1248.49,200.66Z"/><path class="cls-3" d="M1352.4,130.16c-.7,10.85-.88,11-10.65,12.39-1.31.19-3.2,1.52-3.49,2.66-3.56,13.9-6.87,27.86-10.46,42.72l11.25,1c-.31,2-.59,3.76-.87,5.57-.68,4.33-2.42,6.52-7.6,6.29-11.39-.51-22.82-.16-35.35-.16,1-4.4,1.9-8,2.69-11.34a7.07,7.07,0,0,1,1.65-.66c10.25-.24,10.27-.22,12.53-10,2.7-11.68,5.35-23.37,8.23-35.92l-10.53-.58c-.14-11.22.8-12.15,11.12-12.06S1341.64,130.16,1352.4,130.16Z"/><path class="cls-6" d="M334.45,96.12q-7.57,3.48-15.14,7c-9.56,4.42-19.64,1.33-23.65-7.24-4.11-8.79-.35-18.33,9-23,5-2.49,9.86-5.11,14.79-7.66,3.79-1.46,7.63-2.81,11.36-4.39,8.95-3.78,17.83-.76,21.89,7.58s.73,17.14-7.77,21.68C341.37,91.94,337.94,94.08,334.45,96.12Z"/><path class="cls-7" d="M1350.08,103.69l-9,2.65-19.64.76-3.9,0a18.52,18.52,0,0,1-1.12-4.31,23.12,23.12,0,0,1,.86-4.72c6.22-10.12,12.23-20.39,18.79-30.29,2.13-3.21,5.74-5.45,8.67-8.14,0,12.67.11,25.33,0,38C1344.66,101.49,1345.74,103.89,1350.08,103.69Z"/><path class="cls-8" d="M1350.08,103.69c-4.34.2-5.42-2.2-5.38-6.09.12-12.66,0-25.32,0-38l15.62-10.21c.37,5.89.89,11.77,1.08,17.67.24,7.54.13,15.08.41,22.62,0,.8,1.61,1.55,2.47,2.32Z"/><path class="cls-9" d="M1364.29,92c-.86-.77-2.44-1.52-2.47-2.32-.28-7.54-.17-15.08-.41-22.62-.19-5.9-.71-11.78-1.08-17.67l.09,0a2,2,0,0,0,1-.58l25.14-7.9,1.21,2.07C1381,59.79,1376.34,77.59,1364.29,92Z"/><path class="cls-10" d="M1317.25,98a23.12,23.12,0,0,0-.86,4.72,18.52,18.52,0,0,0,1.12,4.31l-9.49.48-.73-1.4Z"/><path class="cls-10" d="M1321.41,107.1l19.64-.76Z"/><path class="cls-8" d="M1361.44,48.78a2,2,0,0,1-1,.58Z"/><path class="cls-11" d="M268.11,228.41c-.74,12.57-8.73,23.14-20.3,26.09a26.16,26.16,0,0,1-30.35-14.05q-29.61-59.89-58.87-120C150.36,103.68,142.08,86.9,133.94,70c-7.14-14.77-2.25-29.84,11.72-36.69,13.3-6.51,28.69-.73,35.73,13.62q41.46,84.65,82.74,169.36C266,220.11,266.81,224.37,268.11,228.41Z"/><path class="cls-11" d="M275.25,176.35c-5.62-.2-12.9-4.82-17.15-13.36q-19.46-39-38.36-78.33c-6.58-13.64-1.93-27.95,10.65-34.15s27-.89,33.64,12.56c12.88,26.07,25.71,52.16,38.25,78.39C310.42,158.48,298.13,177,275.25,176.35Z"/></g></g></svg>