<svg xmlns="http://www.w3.org/2000/svg" viewBox="0 0 1661.43 315.41"><defs><style>.cls-1{fill:#fdfdfd;}.cls-2{fill:#040202;}.cls-3{fill:#fa7e2c;}.cls-4{fill:#060606;}.cls-5{fill:#050505;}.cls-6{fill:#070707;}.cls-7{fill:#f97f2d;}.cls-8{fill:#f0913e;}.cls-9{fill:#ed8039;}.cls-10{fill:#ea7139;}.cls-11{fill:#edb069;}.cls-12{fill:#fa7e2b;}.cls-13{fill:#f8f8f8;}.cls-14{fill:#f3f3f3;}.cls-15{fill:#eee;}.cls-16{fill:#f1f1f1;}.cls-17{fill:#f9f9f9;}</style></defs><g id="Layer_2" data-name="Layer 2"><g id="Layer_1-2" data-name="Layer 1"><path class="cls-1" d="M0,315.41V0H1661.43V315.41Zm1435.87-252-.09,0-15.62,10.22c-2.93,2.68-6.54,4.92-8.67,8.13-6.57,9.9-12.57,20.17-18.79,30.3l-10,8.1.72,1.4,9.49-.48,3.91,0,19.63-.76,9-2.65L1439.74,106c12-14.42,16.72-32.22,23.49-49.06-.4-.69-.8-1.38-1.21-2.07l-25.14,7.9ZM731.62,211.68c-4.64-8.83-9.29-17.65-14-26.66,2.45-1.25,4.19-2.05,5.85-3,10-5.67,14.9-14.73,12.83-23.76-1.9-8.24-8.84-13.12-21-13.74-9.9-.51-19.85-.42-29.75-.09-1.68.05-4.28,2.42-4.74,4.17-3.34,12.87-6.26,25.86-9.3,38.81-2.07,8.83-4.1,17.67-6.17,26.57,17.64,2.29,17.64,2.29,21.08-13.87.35-1.68.39-3.54,1.19-5,1.27-2.31,2.7-5.69,4.69-6.21,3.73-1,8.26-1.33,10.09,4.1.88,2.61,2.52,5,3.83,7.43,8.07,15.3,8.07,15.3,25.29,13.89,1.06.13,2.12.29,3.18.38,10.44.91,20.35,1,24.19-11.86.39-1.33,3.32-2.41,5.21-2.69,2.95-.45,6-.11,9-.11,13.27,0,13.27,0,15.43,12.83a4.63,4.63,0,0,0,.67,1.2h17.37c-2.63-19.36-4.84-38.11-7.81-56.73-2.54-16,.75-12.64-14.75-13.29-5.75-.24-9.25,1.24-12.34,6.59-11.39,19.7-23.4,39.05-35.36,58.42C735.51,210.4,733.22,210.83,731.62,211.68ZM409.9,110.14c3.48-2,6.91-4.17,10.47-6.07,8.51-4.55,11.77-13.5,7.77-21.69S415.2,71,406.26,74.8c-3.74,1.59-7.57,2.94-11.36,4.39-.76-1-1.52-2.08-2.27-3.13-26-36.19-61.49-56.59-105.56-61.28-28.76-3.06-56.34,3.17-81.44,17.46C157.81,59.47,133.16,101.09,131,155.86c-.64,16.22,3.19,31.85,7.36,47.38A70.89,70.89,0,0,1,131,208c-15.35,7.59-31,14.59-46,22.83-4.23,2.34-8.54,7.83-9.33,12.47C73.54,255.84,87,264.92,99,259.59c9.8-4.36,19.26-9.49,29-13.95,8.51-3.88,17.24-7.29,25.87-10.92,25.76,37.88,61.66,59.86,107.08,64.5,38.28,3.91,72.91-7.21,103.32-31C411.22,231.56,430.66,164.28,409.9,110.14Zm1153.38,72.37-1.52.24c-1-2-2.12-3.88-3-5.89-2.86-6.47-6.53-12.76-8.28-19.53-3-11.65-10.06-14.82-21.24-13.37-4,.51-5.71,1.57-6.53,5.25-3.47,15.5-7.07,31-10.63,46.44-1.39,6-2.79,12-4.41,19,4.26,0,7.67-.27,11,.06,4.39.44,6.09-1.4,6.79-5.6,1-6.12,2.62-12.16,4.09-18.21,1.89-7.74,3.89-15.46,6.2-24.55,1.67,3.07,2.72,4.67,3.47,6.41,5.23,12.24,10.73,24.38,15.48,36.81,2.86,7.48,8.73,4.42,13.64,5.09s4.91-3.34,5.61-6.23c2.54-10.43,4.81-20.93,7.25-31.38,2.5-10.78,5.08-21.54,7.7-32.59h-16.44c-1.53,6.44-3,12.67-4.52,18.9S1564.83,176.14,1563.28,182.51ZM1081.37,213.6c13.47,0,26.39.73,39.2-.18,16.1-1.15,27-10.76,33.51-24.94,10.89-23.72-.67-42.59-26.69-44-8.17-.46-16.41.14-24.57-.4-4.57-.29-6,1.81-6.79,5.52-3.36,14.85-6.82,29.68-10.23,44.52C1084.28,200.69,1082.79,207.31,1081.37,213.6ZM976.06,185.15c2.59-1.33,4.5-2.25,6.34-3.28,10.19-5.72,14.61-14.53,12.36-24.56-1.6-7.11-9.26-12.23-20.41-12.79-9.69-.48-19.42,0-29.11-.43-4.34-.21-5.48,1.68-6.27,5.32-2.24,10.26-4.82,20.44-7.18,30.67-2.6,11.24-5.12,22.49-7.87,34.61,4.75,0,8.6-.28,12.39.08,4.37.41,6.1-1.4,6.79-5.55a106,106,0,0,1,3.7-15c.67-2.06,2.37-5,4-5.3,3.5-.63,7.65-1.55,9.87,3.41a196.61,196.61,0,0,0,9.52,18.27c1,1.75,3.25,3.68,5.1,3.87,5.07.53,10.23.19,16.84.19Zm483.68,31c21.42-.05,37.51-12.34,43.16-32.94,5.32-19.39-2.14-35.24-18.46-39.29-25.12-6.23-49.39,8.76-55,33.94C1424.33,201,1436.35,216.17,1459.74,216.11Zm-427,0c24.39.07,42.62-16.43,45.06-40.8,1.6-16-6.3-28.26-20.28-31.4-25.41-5.7-47.72,7.79-54.44,32.92C996.94,199.76,1009.23,216,1032.73,216.1Zm207.66-71.88c-5.33,0-9.19.35-13-.08-4.69-.55-6.31,1.45-7.24,5.79-2.74,12.79-5.88,25.5-9,38.21a32.14,32.14,0,0,1-2.83,7.85c-3.31,6-11.77,8.63-18.74,6.16-5.33-1.88-6.82-5.64-5.38-14.05.44-2.53,1.25-5,1.83-7.49,2.73-11.85,5.45-23.7,8.3-36.09H1176c-3.54,16.55-7.59,33-10.41,49.65-1.74,10.21,2.79,16.3,12.65,19.65,10.31,3.49,20.7,3.11,31.1-.06,7.8-2.38,13.9-7.28,16.17-14.64C1230.93,181.4,1235.28,163.32,1240.39,144.22Zm-694.49,0c-5.36,0-10.08-.3-14.71.18a6,6,0,0,0-4.12,3.64c-3.63,14.6-7.22,29.21-10.22,43.94-1.6,7.84.24,15.09,7.62,19.76,19.84,12.53,48.67,2.17,55.26-20.15,3.27-11.1,5.53-22.5,8.19-33.78,1-4.29,1.87-8.61,2.91-13.44-4.74,0-8.64.29-12.47-.07-4.33-.41-6,1.27-6.84,5.47-1.75,9.08-4,18.05-6.15,27-1.35,5.64-2.49,11.38-4.47,16.79-2.79,7.63-11.11,11.17-19.27,8.84-6-1.72-7.66-6-5.79-15.52.16-.85.41-1.67.61-2.51C539.53,171.28,542.61,158.19,545.9,144.18Zm-101,51.46c-.71,3.08-2.12,7.38-2.52,11.77-.13,1.46,2.07,4.14,3.65,4.56,6.43,1.68,13,3.33,19.59,3.81,11.54.84,22.92-.33,32.79-7.27,6.58-4.63,9.33-11.27,8.37-19.11-.89-7.32-6.29-11-12.68-13.24-4.85-1.73-9.92-2.85-14.7-4.73-4.31-1.7-11-1.84-10.13-8.67.87-6.59,7.2-6.35,12.24-7.16a8.12,8.12,0,0,1,3.22,0c8,2,15.89,4.16,24.59,6.46.75-3.29,1.94-7.76,2.66-12.31.14-.92-1.33-2.82-2.38-3.1-17-4.55-34-6.68-50,3-11.38,6.88-13.31,25.54,1.72,31.66,6.36,2.59,13,4.47,19.52,6.73,3.67,1.28,7.94,2.35,7.59,7.38s-4.41,6.52-8.57,7.29c-2.73.52-5.75,1.14-8.34.5C462.94,201.07,454.48,198.4,444.93,195.64ZM647.05,144.2c-5.75,0-11-.48-16,.19-2.68.36-6.12,2.07-7.49,4.24-12.77,20.42-25.18,41.07-37.64,61.68a19.23,19.23,0,0,0-1.37,3.7c11,2.24,20.22,1.52,24.23-10.74.45-1.38,2.81-3,4.34-3,7.72-.31,15.46-.14,23.69-.14.51,3.91.69,7.34,1.52,10.6.38,1.48,2,3.67,3.15,3.77,4.86.44,9.78.18,15.48.18C653.58,190.87,650.38,168,647.05,144.2Zm223.81,70.15a8.68,8.68,0,0,0,.81-1.43c1-3.95,2-7.91,2.93-11.86,2.38-9.47,2.39-9.27,12.16-9.6,10.48-.36,20.65-2.07,29-9.28,7.43-6.44,10.61-16.83,7.32-25.75-3.21-8.71-10.87-11.28-19.15-11.76-9.69-.56-19.42-.21-29.12-.57-3.77-.14-5.28,1.17-6.06,4.83-2.46,11.54-5.29,23-8,34.51l-7.19,30.91Zm436.45-49.6a94.83,94.83,0,0,1,2.91-10.26c2-5.15-.09-7.4-4.85-8.87-16.6-5.12-32.51-4.4-46.56,6.6s-18.4,26.09-16.33,43.16c1,8.18,5.76,14.35,13.47,17.66,9.94,4.26,20.2,4.16,30.4,1,11.76-3.62,13.77-6.64,14-19.78-5.18,2.4-10.22,5.39-15.66,7.15-16,5.18-25.47-2.62-23.83-19.23,1.76-17.78,14.27-28.77,30.23-25.49C1296.51,157.81,1301.33,161.68,1307.31,164.75Zm16.63,49.93c4.12,0,7.62-.45,11,.1,6,1,7.79-2.14,8.83-7.2,2.15-10.53,4.61-21,7.08-31.45,1.37-5.84,1.26-13.67,5-16.86s11.4-1,17.26-1.85a8.23,8.23,0,0,0,5.25-4c1.29-2.5,1.39-5.61,2.18-9.29-3.17,0-5.7,0-8.23,0l-42.8,0c-11.78,0-11.78,0-14.1,11.48-.07.35.28.78.76,2h20.93Zm103.91-70.5c-10.77,0-21.13.07-31.48,0s-11.27.84-11.12,12.06l10.52.59c-2.87,12.54-5.53,24.23-8.23,35.91-2.25,9.76-2.28,9.75-12.52,10a6.81,6.81,0,0,0-1.66.67c-.79,3.33-1.64,6.93-2.68,11.34,12.52,0,24-.36,35.34.15,5.18.23,6.93-2,7.6-6.29.29-1.81.57-3.62.87-5.57l-11.24-1c3.59-14.87,6.9-28.83,10.45-42.73.29-1.14,2.19-2.47,3.49-2.66C1427,155.13,1427.15,155,1427.85,144.18Z"/><path class="cls-2" d="M138.35,203.24c-4.17-15.53-8-31.16-7.36-47.38,2.17-54.77,26.82-96.39,74.64-123.62,25.1-14.29,52.68-20.52,81.44-17.46,44.07,4.69,79.58,25.09,105.56,61.28.75,1,1.51,2.09,2.27,3.13-4.94,2.55-9.84,5.17-14.8,7.66-9.35,4.71-13.11,14.24-9,23,4,8.58,14.1,11.66,23.66,7.24q7.56-3.51,15.14-7c20.76,54.14,1.32,121.42-45.63,158.11-30.41,23.76-65,34.88-103.32,31-45.42-4.64-81.32-26.62-107.08-64.49,14.2-7.4,28.38-14.81,43.07-22.48,2.46,5,4.42,9,6.41,13s3.88,8.17,6.11,12.09A24.59,24.59,0,0,0,253.66,216c-.89-2.19-2-4.3-3-6.43-11.73-23.95-23.53-47.88-35.2-71.86-7.07-14.52-20.8-20.25-34.05-14s-17.57,20.62-10.5,35.11c3.82,7.84,7.56,15.72,11.58,24.07Zm205.21,39.19c-1.31-4-2.15-8.3-4-12.08Q298.33,145.62,256.83,61c-7-14.35-22.43-20.13-35.72-13.62-14,6.85-18.86,21.92-11.73,36.69,8.14,16.86,16.42,33.64,24.66,50.45,19.6,40,39.12,80,58.87,120a26.14,26.14,0,0,0,30.34,14C334.83,265.58,342.82,255,343.56,242.43Zm7.14-52.06c22.88.63,35.17-17.87,27-34.89-12.55-26.22-25.38-52.32-38.25-78.39-6.64-13.45-21.16-18.71-33.65-12.56S288.61,85,295.19,98.68Q314.14,138,333.54,177C337.79,185.55,345.08,190.17,350.7,190.37Z"/><path class="cls-3" d="M138.35,203.24l44.12-20.37c-4-8.35-7.76-16.23-11.58-24.07-7.07-14.49-2.79-28.86,10.5-35.11s27-.5,34.05,14c11.67,24,23.47,47.91,35.2,71.86,1.05,2.13,2.13,4.24,3,6.43a24.59,24.59,0,0,1-44.2,21.34c-2.23-3.92-4.1-8.05-6.11-12.09s-3.95-8-6.41-13c-14.69,7.67-28.87,15.08-43.07,22.48-8.63,3.62-17.36,7-25.87,10.91-9.77,4.46-19.23,9.59-29,13.95-12,5.33-25.43-3.75-23.3-16.26.79-4.64,5.1-10.13,9.33-12.47,15-8.24,30.67-15.24,46-22.83A70.89,70.89,0,0,0,138.35,203.24Z"/><path class="cls-4" d="M1563.28,182.51c1.55-6.37,3.12-12.73,4.66-19.11s3-12.46,4.52-18.9h16.44c-2.62,11.05-5.2,21.81-7.7,32.59-2.44,10.45-4.71,20.95-7.25,31.38-.7,2.89-.69,6.89-5.61,6.23s-10.78,2.39-13.64-5.09c-4.75-12.43-10.25-24.57-15.48-36.81-.75-1.74-1.8-3.34-3.47-6.41-2.31,9.09-4.31,16.81-6.2,24.55-1.47,6.05-3.08,12.09-4.09,18.21-.7,4.2-2.4,6-6.79,5.6-3.35-.33-6.76-.06-11-.06,1.62-7,3-13,4.41-19,3.56-15.48,7.16-30.94,10.63-46.44.82-3.68,2.56-4.74,6.53-5.25,11.18-1.45,18.23,1.72,21.24,13.37,1.75,6.77,5.42,13.06,8.28,19.53.9,2,2,3.93,3,5.89Z"/><path class="cls-5" d="M1081.37,213.6c1.42-6.29,2.91-12.91,4.43-19.52,3.41-14.84,6.87-29.67,10.23-44.52.84-3.71,2.22-5.81,6.79-5.52,8.16.54,16.4-.06,24.57.4,26,1.45,37.58,20.32,26.69,44-6.5,14.18-17.41,23.79-33.51,24.94C1107.76,214.33,1094.84,213.6,1081.37,213.6Zm20.24-12c20.72,4.16,35-5.69,37.26-24.55,1.79-14.76-9.86-24.55-24.47-20.48a4.13,4.13,0,0,0-2.59,2.33C1108.35,173,1105.05,187.08,1101.61,201.61Z"/><path class="cls-5" d="M976.06,185.15l16.08,29.53c-6.61,0-11.77.34-16.84-.19-1.85-.19-4.08-2.12-5.1-3.87a196.61,196.61,0,0,1-9.52-18.27c-2.22-5-6.37-4-9.87-3.41-1.64.29-3.34,3.24-4,5.3a106,106,0,0,0-3.7,15c-.69,4.15-2.42,6-6.79,5.55-3.79-.36-7.64-.08-12.39-.08,2.75-12.12,5.27-23.37,7.87-34.61,2.36-10.23,4.94-20.41,7.18-30.67.79-3.64,1.93-5.53,6.27-5.32,9.69.45,19.42-.05,29.11.43,11.15.56,18.81,5.68,20.41,12.79,2.25,10-2.17,18.84-12.36,24.56C980.56,182.9,978.65,183.82,976.06,185.15Zm-25.48-8.68c9.27,0,17.87,2.35,24-5.86,4.29-5.78,1.25-12.88-5.86-14.07-12-2-13.93-.69-16.45,11.08C951.7,170.09,951.3,172.58,950.58,176.47Z"/><path class="cls-4" d="M1459.74,216.11c-23.39.06-35.41-15.14-30.27-38.29,5.58-25.18,29.85-40.17,55-33.94,16.32,4.05,23.78,19.9,18.46,39.29C1497.25,203.77,1481.16,216.06,1459.74,216.11Zm-12.37-29.46c-.35,5.61.6,11.77,6.92,15.32,6,3.38,12.2,2.51,17.79-1.15,2.64-1.73,5.68-3.94,6.84-6.65,2.91-6.79,5.84-13.85,6.9-21.07.92-6.34-.87-13.25-7.67-16.45s-13.59-2-19.4,2.78C1450.47,166.18,1447.33,175.29,1447.37,186.65Z"/><path class="cls-4" d="M1032.73,216.1c-23.5-.07-35.79-16.34-29.66-39.28,6.72-25.13,29-38.62,54.44-32.92,14,3.14,21.88,15.38,20.28,31.4C1075.35,199.67,1057.12,216.17,1032.73,216.1Zm-12.08-30.93c-.21,7.15.75,13.87,8.14,17.45,6.26,3,14.76.83,20.71-5.05,7-7,9.64-15.65,9.76-25.17.08-6.47-1.27-12.79-7.86-15.8-6.87-3.13-13.59-1.81-19.39,2.91C1023.92,166.1,1020.84,175,1020.65,185.17Z"/><path d="M731.49,214.34c-17.22,1.41-17.22,1.41-25.29-13.89-1.31-2.46-3-4.82-3.83-7.43-1.83-5.43-6.36-5.07-10.09-4.1-2,.52-3.42,3.9-4.69,6.21-.8,1.45-.84,3.31-1.19,5C683,216.28,683,216.28,665.32,214c2.07-8.9,4.1-17.74,6.17-26.57,3-12.95,6-25.94,9.3-38.81.46-1.75,3.06-4.12,4.74-4.17,9.9-.33,19.85-.42,29.75.09,12.14.62,19.08,5.5,21,13.74,2.07,9-2.8,18.09-12.83,23.76-1.66.94-3.4,1.74-5.85,3,4.75,9,9.4,17.83,14,26.66Zm-12.52-50c-2.54-2.69-4.4-6.46-6.88-6.91-5-.92-10.38-.11-15.59.17-.38,0-.78,1.44-1,2.26-1,3.93-2,7.86-2.9,11.82-.94,4.16,1.69,6.73,5.07,6.16a58.27,58.27,0,0,0,15.94-5.24C715.79,171.56,716.72,168,719,164.37Z"/><path class="cls-4" d="M1240.39,144.22c-5.11,19.1-9.46,37.18-14.93,54.9-2.27,7.36-8.37,12.26-16.17,14.64-10.4,3.17-20.79,3.55-31.1.06-9.86-3.35-14.39-9.44-12.65-19.65,2.82-16.65,6.87-33.1,10.41-49.65h18.44c-2.85,12.39-5.57,24.24-8.3,36.09-.58,2.5-1.39,5-1.83,7.49-1.44,8.41,0,12.17,5.38,14.05,7,2.47,15.43-.17,18.74-6.16a32.14,32.14,0,0,0,2.83-7.85c3.1-12.71,6.24-25.42,9-38.21.93-4.34,2.55-6.34,7.24-5.79C1231.2,144.57,1235.06,144.22,1240.39,144.22Z"/><path class="cls-4" d="M545.9,144.18c-3.29,14-6.37,27.1-9.45,40.19-.2.84-.45,1.66-.61,2.51-1.87,9.48-.25,13.8,5.79,15.52,8.16,2.33,16.48-1.21,19.27-8.84,2-5.41,3.12-11.15,4.47-16.79,2.15-9,4.4-18,6.15-27,.81-4.2,2.51-5.88,6.84-5.47,3.83.36,7.73.07,12.47.07-1,4.83-1.9,9.15-2.91,13.44-2.66,11.28-4.92,22.68-8.19,33.78-6.59,22.32-35.42,32.68-55.26,20.15-7.38-4.67-9.22-11.92-7.62-19.76,3-14.73,6.59-29.34,10.22-43.94a6,6,0,0,1,4.12-3.64C535.82,143.88,540.54,144.18,545.9,144.18Z"/><path class="cls-6" d="M444.93,195.64c9.55,2.76,18,5.43,26.6,7.55,2.59.64,5.61,0,8.34-.5,4.16-.77,8.23-2.3,8.57-7.29s-3.92-6.1-7.59-7.38c-6.51-2.26-13.16-4.14-19.52-6.73-15-6.12-13.1-24.78-1.72-31.66,16-9.68,33-7.55,50-3,1.05.28,2.52,2.18,2.38,3.1-.72,4.55-1.91,9-2.66,12.31-8.7-2.3-16.63-4.43-24.59-6.46a8.12,8.12,0,0,0-3.22,0c-5,.81-11.37.57-12.24,7.16-.9,6.83,5.82,7,10.13,8.67,4.78,1.88,9.85,3,14.7,4.73,6.39,2.28,11.79,5.92,12.68,13.24,1,7.84-1.79,14.48-8.37,19.11-9.87,6.94-21.25,8.11-32.79,7.27-6.6-.48-13.16-2.13-19.59-3.81-1.58-.42-3.78-3.1-3.65-4.56C442.81,203,444.22,198.72,444.93,195.64Z"/><path class="cls-6" d="M731.49,214.34l.13-2.66c1.6-.85,3.89-1.28,4.7-2.6,12-19.37,24-38.72,35.36-58.42,3.09-5.35,6.59-6.83,12.34-6.59,15.5.65,12.21-2.7,14.75,13.29,3,18.62,5.18,37.37,7.81,56.73H789.21a4.63,4.63,0,0,1-.67-1.2c-2.16-12.83-2.16-12.83-15.43-12.83-3,0-6.09-.34-9,.11-1.89.28-4.82,1.36-5.21,2.69-3.84,12.84-13.75,12.77-24.19,11.86C733.61,214.63,732.55,214.47,731.49,214.34Zm51.57-50.22-2.09-.41c-4.44,7.75-8.87,15.5-14.17,24.78,6.25,0,10.9.26,15.48-.17,1.24-.12,3.31-2.41,3.23-3.57C785,177.85,783.93,171,783.06,164.12Z"/><path class="cls-6" d="M647.05,144.2c3.33,23.78,6.53,46.67,9.86,70.45-5.7,0-10.62.26-15.48-.18-1.19-.1-2.77-2.29-3.15-3.77-.83-3.26-1-6.69-1.52-10.6-8.23,0-16-.17-23.69.14-1.53.06-3.89,1.65-4.34,3-4,12.26-13.18,13-24.23,10.74a19.23,19.23,0,0,1,1.37-3.7c12.46-20.61,24.87-41.26,37.64-61.68,1.37-2.17,4.81-3.88,7.49-4.24C636.08,143.72,641.3,144.2,647.05,144.2Zm-30.2,43.73h19.38c-1-8.28-1.9-16.33-2.83-24.38l-2.08-.46Z"/><path class="cls-4" d="M870.86,214.35h-17.3l7.19-30.91c2.68-11.5,5.51-23,8-34.51.78-3.66,2.29-5,6.06-4.83,9.7.36,19.43,0,29.12.57,8.28.48,15.94,3.05,19.15,11.76,3.29,8.92.11,19.31-7.32,25.75-8.32,7.21-18.49,8.92-29,9.28-9.77.33-9.78.13-12.16,9.6-1,3.95-1.94,7.91-2.93,11.86A8.68,8.68,0,0,1,870.86,214.35Zm8.74-34.92c6.64-.71,12.17-.14,16.53-2.14,3.75-1.72,7.22-5.95,8.77-9.87.9-2.3-1.5-8.15-3.66-8.92-4.79-1.7-10.36-1.26-15.62-1.51-.45,0-1.22,1.22-1.4,2C882.75,165.18,881.39,171.42,879.6,179.43Z"/><path class="cls-6" d="M1307.31,164.75c-6-3.07-10.8-6.94-16.19-8-16-3.28-28.47,7.71-30.23,25.49-1.64,16.61,7.82,24.41,23.83,19.23,5.44-1.76,10.48-4.75,15.66-7.15-.26,13.14-2.27,16.16-14,19.78-10.2,3.14-20.46,3.24-30.4-1-7.71-3.31-12.48-9.48-13.47-17.66-2.07-17.07,2.34-32.22,16.33-43.16s30-11.72,46.56-6.6c4.76,1.47,6.9,3.72,4.85,8.87A94.83,94.83,0,0,0,1307.31,164.75Z"/><path class="cls-4" d="M1323.94,214.68l13.13-57.07h-20.93c-.48-1.17-.83-1.6-.76-2,2.32-11.48,2.32-11.48,14.1-11.48l42.8,0c2.53,0,5.06,0,8.23,0-.79,3.68-.89,6.79-2.18,9.29a8.23,8.23,0,0,1-5.25,4c-5.86.84-13.64-1.22-17.26,1.85s-3.65,11-5,16.86c-2.47,10.46-4.93,20.92-7.08,31.45-1,5.06-2.81,8.2-8.83,7.2C1331.56,214.23,1328.06,214.68,1323.94,214.68Z"/><path class="cls-4" d="M1427.85,144.18c-.7,10.86-.88,10.95-10.66,12.39-1.3.19-3.2,1.52-3.49,2.66-3.55,13.9-6.86,27.86-10.45,42.73l11.24,1c-.3,1.95-.58,3.76-.87,5.57-.67,4.33-2.42,6.52-7.6,6.29-11.39-.51-22.82-.15-35.34-.15,1-4.41,1.89-8,2.68-11.34a6.81,6.81,0,0,1,1.66-.67c10.24-.23,10.27-.22,12.52-10,2.7-11.68,5.36-23.37,8.23-35.91l-10.52-.59c-.15-11.22.8-12.14,11.12-12.06S1417.08,144.18,1427.85,144.18Z"/><path class="cls-7" d="M409.9,110.14q-7.57,3.48-15.14,7c-9.56,4.42-19.64,1.34-23.66-7.24-4.11-8.79-.35-18.32,9-23,5-2.49,9.86-5.11,14.8-7.66,3.79-1.45,7.62-2.8,11.36-4.39,8.94-3.78,17.82-.75,21.88,7.58s.74,17.14-7.77,21.69C416.81,106,413.38,108.11,409.9,110.14Z"/><path class="cls-8" d="M1425.52,117.71l-9,2.65-19.63.76-3.91,0a19,19,0,0,1-1.11-4.31,22.26,22.26,0,0,1,.86-4.71c6.22-10.13,12.22-20.4,18.79-30.3,2.13-3.21,5.74-5.45,8.67-8.13,0,12.66.1,25.32,0,38C1420.11,115.51,1421.18,117.91,1425.52,117.71Z"/><path class="cls-9" d="M1425.52,117.71c-4.34.2-5.41-2.2-5.38-6.09.12-12.66,0-25.32,0-38l15.62-10.22c.37,5.89.89,11.77,1.07,17.67.24,7.54.14,15.09.41,22.62,0,.8,1.61,1.55,2.48,2.32Z"/><path class="cls-10" d="M1439.74,106c-.87-.77-2.45-1.52-2.48-2.32-.27-7.53-.17-15.08-.41-22.62-.18-5.9-.7-11.78-1.07-17.67l.09,0a1.91,1.91,0,0,0,1-.58L1462,54.9c.41.69.81,1.38,1.21,2.07C1456.46,73.81,1451.78,91.61,1439.74,106Z"/><path class="cls-11" d="M1392.7,112.07a22.26,22.26,0,0,0-.86,4.71,19,19,0,0,0,1.11,4.31l-9.49.48-.72-1.4Z"/><path class="cls-11" d="M1396.86,121.12l19.63-.76Z"/><path class="cls-9" d="M1436.88,62.8a1.91,1.91,0,0,1-1,.58Z"/><path class="cls-12" d="M343.56,242.43c-.74,12.57-8.73,23.15-20.31,26.09a26.14,26.14,0,0,1-30.34-14c-19.75-39.93-39.27-80-58.87-120-8.24-16.81-16.52-33.59-24.66-50.45-7.13-14.77-2.25-29.84,11.73-36.69,13.29-6.51,28.69-.73,35.72,13.62q41.46,84.64,82.74,169.36C341.41,234.13,342.25,238.39,343.56,242.43Z"/><path class="cls-12" d="M350.7,190.37c-5.62-.2-12.91-4.82-17.16-13.36q-19.44-39-38.35-78.33c-6.58-13.64-1.94-27.94,10.64-34.15s27-.89,33.65,12.56c12.87,26.07,25.7,52.17,38.25,78.39C385.87,172.5,373.58,191,350.7,190.37Z"/><path class="cls-13" d="M1101.61,201.61c3.44-14.53,6.74-28.64,10.2-42.7a4.13,4.13,0,0,1,2.59-2.33c14.61-4.07,26.26,5.72,24.47,20.48C1136.58,195.92,1122.33,205.77,1101.61,201.61Z"/><path class="cls-14" d="M950.58,176.47c.72-3.89,1.12-6.38,1.65-8.85,2.52-11.77,4.48-13.07,16.45-11.08,7.11,1.19,10.15,8.29,5.86,14.07C968.45,178.82,959.85,176.49,950.58,176.47Z"/><path class="cls-13" d="M1447.37,186.65c0-11.36,3.1-20.47,11.38-27.22,5.81-4.74,12.6-6,19.4-2.78s8.59,10.11,7.67,16.45c-1.06,7.22-4,14.28-6.9,21.07-1.16,2.71-4.2,4.92-6.84,6.65-5.59,3.66-11.77,4.53-17.79,1.15C1448,198.42,1447,192.26,1447.37,186.65Z"/><path class="cls-13" d="M1020.65,185.17c.19-10.14,3.27-19.07,11.36-25.66,5.8-4.72,12.52-6,19.39-2.91,6.59,3,7.94,9.33,7.86,15.8-.12,9.52-2.74,18.21-9.76,25.17-6,5.88-14.45,8.09-20.71,5.05C1021.4,199,1020.44,192.32,1020.65,185.17Z"/><path class="cls-14" d="M719,164.37c-2.25,3.65-3.18,7.19-5.35,8.26a58.27,58.27,0,0,1-15.94,5.24c-3.38.57-6-2-5.07-6.16.9-4,1.9-7.89,2.9-11.82.21-.82.61-2.24,1-2.26,5.21-.28,10.57-1.09,15.59-.17C714.57,157.91,716.43,161.68,719,164.37Z"/><path class="cls-15" d="M783.06,164.12c.87,6.87,1.92,13.73,2.45,20.63.08,1.16-2,3.45-3.23,3.57-4.58.43-9.23.17-15.48.17,5.3-9.28,9.73-17,14.17-24.78Z"/><path class="cls-16" d="M616.85,187.93l14.47-24.84,2.08.46c.93,8,1.87,16.1,2.83,24.38Z"/><path class="cls-17" d="M879.6,179.43c1.79-8,3.15-14.25,4.62-20.47.18-.75.95-2,1.4-2,5.26.25,10.83-.19,15.62,1.51,2.16.77,4.56,6.62,3.66,8.92-1.55,3.92-5,8.15-8.77,9.87C891.77,179.29,886.24,178.72,879.6,179.43Z"/></g></g></svg>